Coordinates
version=1
nRows=14
nColumns=24
inDegrees=yes

Units are S.I. units (second, meters, Newtons, ...)
Angles are in degrees.

endheader
time	pelvis_tilt	pelvis_list	pelvis_rotation	pelvis_tx	pelvis_ty	pelvis_tz	hip_flexion_r	hip_adduction_r	hip_rotation_r	knee_angle_r	ankle_angle_r	subtalar_angle_r	mtp_angle_r	hip_flexion_l	hip_adduction_l	hip_rotation_l	knee_angle_l	ankle_angle_l	subtalar_angle_l	mtp_angle_l	lumbar_extension	lumbar_bending	lumbar_rotation
      0.52100000	      0.92659479	      1.74708631	      2.87100477	     -0.71541181	      0.98367336	      0.28609099	     22.68053196	      0.60103630	     -3.60118543	     -1.35090318	      4.15946879	    -13.17042384	     -0.00008623	    -17.67524175	      5.39903065	      1.14403843	     -6.39564842	     11.50522358	     -1.02014628	      0.52719798	     -1.94644339	      0.68430047	     -2.72713796
      0.52516667	      0.90297963	      1.71574885	      2.91587079	     -0.70925475	      0.98305092	      0.28623565	     22.66194910	      0.68090506	     -3.71274689	     -1.45689961	      4.07826552	    -13.23562784	     -0.00251384	    -17.78382790	      5.33076119	      1.11746463	     -6.84556711	     11.38656337	     -1.07224818	      0.53993094	     -1.88080771	      0.74820879	     -2.69925041
      0.52933333	      0.83746196	      1.64427356	      2.98718640	     -0.70302267	      0.98240837	      0.28638963	     22.68426435	      0.79310563	     -3.84015671	     -1.61770850	      3.80431649	    -13.45372778	      0.01215606	    -17.79017375	      5.19901997	      0.98136982	     -7.41447029	     11.40478268	     -0.82092657	      0.68998684	     -1.73177820	      0.83360318	     -2.74080769
      0.53350000	      0.81774821	      1.57016833	      3.03149093	     -0.69676193	      0.98186903	      0.28654882	     22.68260954	      0.91285977	     -3.96144202	     -1.88928636	      3.56855481	    -13.63017103	      0.02632284	    -17.87381553	      5.07835011	      0.92709847	     -7.91795682	     11.27757878	     -0.76201588	      0.77863149	     -1.65481985	      0.95375475	     -2.76626475
      0.53766667	      0.76889366	      1.50666830	      3.08243802	     -0.69047935	      0.98133477	      0.28672412	     22.68490499	      1.02112768	     -3.98127720	     -2.15643216	      3.25583010	    -13.90002099	      0.07292406	    -17.86572003	      4.95898876	      0.78820143	     -8.54357452	     11.18319279	     -0.59493830	      0.96565710	     -1.52370691	      1.03834572	     -2.83032117
      0.54183333	      0.71759116	      1.43253575	      3.11428363	     -0.68416072	      0.98084243	      0.28692252	     22.70945906	      1.14413073	     -3.98612010	     -2.51272032	      2.90678812	    -14.21385183	      0.13991833	    -17.84706103	      4.83498053	      0.66790808	     -9.17634304	     11.03050537	     -0.48176817	      1.20172548	     -1.39549127	      1.14893571	     -2.85750691
      0.54600000	      0.73710152	      1.35182022	      3.11768618	     -0.67779891	      0.98047627	      0.28712805	     22.69160830	      1.27685780	     -4.05251804	     -2.98107623	      2.62340448	    -14.35097243	      0.14953703	    -17.92845373	      4.71588279	      0.59180359	     -9.75573843	     10.76871505	     -0.53467979	      1.24494784	     -1.35926964	      1.25984194	     -2.86031171
      0.55016667	      0.65525040	      1.23833519	      3.14939552	     -0.67138663	      0.98004488	      0.28737825	     22.69871741	      1.45227256	     -3.87618202	     -3.31698014	      2.11149382	    -15.09932095	      0.36579050	    -17.81093020	      4.53210421	      0.36527562	    -10.51106757	     10.58632209	     -0.18137613	      1.92213512	     -1.16484050	      1.42910105	     -2.89562145
      0.55433333	      0.59764380	      1.16473544	      3.16953253	     -0.66498899	      0.97968465	      0.28758237	     22.74012747	      1.56711487	     -3.87714860	     -3.79206040	      1.56935033	    -15.27756708	      0.44506430	    -17.72836998	      4.41397175	      0.30597738	    -11.24436905	     10.31949777	     -0.20805330	      2.19222656	     -1.01970899	      1.53200966	     -2.88170857
      0.55850000	      0.54145487	      1.06524173	      3.17222356	     -0.65854865	      0.97937138	      0.28783628	     22.76901637	      1.72143587	     -3.79560734	     -4.27836394	      1.03691054	    -15.68745840	      0.55981357	    -17.61371439	      4.25970846	      0.15025995	    -12.03237969	     10.01974244	     -0.07856174	      2.59039061	     -0.85933040	      1.67967670	     -2.87753180
      0.56266667	      0.59455744	      0.91621336	      3.13482562	     -0.65203305	      0.97926661	      0.28819260	     22.61194663	      1.96685801	     -3.50729224	     -4.64850778	      0.37788364	    -16.56209510	      1.16299008	    -17.62565945	      4.04792605	     -0.07364476	    -12.78479937	      9.58490775	      0.05652003	      4.75948688	     -0.84838097	      1.88167754	     -2.85227424
      0.56683333	      0.49806597	      0.81463295	      3.13799435	     -0.64554587	      0.97900182	      0.28841540	     22.73959831	      2.09918364	     -3.58540135	     -5.29318453	     -0.09532945	    -16.61306137	      1.19157246	    -17.42902500	      3.89955748	     -0.13714336	    -13.63080994	      9.14330807	      0.04813793	      4.89431487	     -0.63940347	      2.02967755	     -2.82654874
      0.57100000	      0.48766498	      0.67831387	      3.10280230	     -0.63905766	      0.97890104	      0.28880087	     22.66375827	      2.32353653	     -3.29822924	     -5.71947289	     -0.74307288	    -17.36321634	      1.56321427	    -17.25489627	      3.68458262	     -0.43186025	    -14.59787172	      8.71416930	      0.30452345	      6.62361665	     -0.53454911	      2.21306750	     -2.80278236
      0.57516667	      0.38291839	      0.58201795	      3.10909961	     -0.63257017	      0.97874194	      0.28903188	     22.78094601	      2.44566001	     -3.34270347	     -6.35284716	     -1.23128776	    -17.42012205	      1.59229704	    -16.97176202	      3.53385954	     -0.48845182	    -15.56984319	      8.17933835	      0.27550912	      6.82592742	     -0.30584741	      2.35045442	     -2.75647675
